<svg xmlns="http://www.w3.org/2000/svg" width="949.978" height="1261.854" viewBox="0 0 949.978 1261.854" fill="none">
  <path d="M 875.37 843.644 C 928.442 776.168 1054.359 277.921 774.647 188.53 C 494.936 99.14 113.233 -113.346 176.451 76.426 C 239.668 266.198 -46.571 -6.645 6.633 171.374 C 59.837 349.393 392.36 560.557 378.872 777.17 C 365.383 993.784 419.013 930.844 399.306 947.454 C 379.599 964.064 494.815 987.635 471.996 1002.168 C 449.177 1016.702 280.029 1032.578 326.702 1141.578 C 373.375 1250.578 457.258 1282.379 499.912 1249.539 C 540.362 1218.396 469.833 1105.245 483.316 1085.521 C 496.8 1065.797 574.587 1131.198 620.224 1085.521 C 665.86 1039.844 598.443 928.768 632.67 879.978 C 666.897 831.187 822.297 911.121 875.37 843.644 Z" fill="currentColor" fill-rule="nonzero"></path>
</svg>