<svg xmlns="http://www.w3.org/2000/svg" width="2246.777" height="1637" viewBox="0 0 2246.777 1637" fill="none">
  <path d="M 2205.381 773.24 C 2346.05 633.876 2092.672 330.533 1974.464 200.776 C 1856.256 71.02 1578.603 -52.223 1443.902 22.82 C 1309.201 97.863 1416.412 337.996 1309.199 395.886 C 1201.987 453.776 995.81 297.259 861.108 425.903 C 726.406 554.546 896.777 836 571.277 1016.5 C 245.777 1197 64.258 955.983 3.777 986 C -56.704 1016.017 627.437 1163.459 751.144 1388.586 C 874.85 1613.712 1097.179 1679.393 1210.233 1611.567 C 1317.445 1547.245 1098.631 1295.76 1122.277 1247 C 1202.777 1081 1408.16 1367.146 1529.119 1272.806 C 1650.077 1178.467 1471.39 949.053 1562.108 848.282 C 1652.826 747.511 2064.713 912.604 2205.381 773.24 Z" fill="currentColor" fill-rule="nonzero"></path>
</svg>