<svg xmlns="http://www.w3.org/2000/svg" width="764" height="339" viewBox="0 0 764 339" fill="none">
  <path d="M 764 339 L 0 339 L 0 0 L 764 0 L 764 339 Z M 185.095 67.209 C 185.095 69.246 183.713 72.666 181.022 77.395 C 178.405 82.051 172.587 87.253 163.569 92.964 C 157.461 91.8 149.389 91.218 139.427 91.218 C 116.738 91.218 98.485 94.928 84.741 102.276 C 71.07 109.552 64.234 121.701 64.234 138.652 C 64.234 145.273 66.307 151.566 70.488 157.568 C 74.742 163.607 80.524 168.918 87.796 173.574 C 79.833 175.611 73.143 179.54 67.726 185.36 C 62.381 191.108 59.727 197.582 59.727 204.857 C 59.727 210.023 61.035 214.825 63.653 219.263 C 66.271 223.628 69.762 227.411 74.125 230.612 C 67.508 233.522 61.981 237.888 57.545 243.708 C 53.182 249.528 51 256.003 51 263.206 C 51 269.899 52.636 275.938 55.944 281.395 C 59.217 286.815 63.69 291.07 69.325 294.198 C 74.925 297.399 81.106 299 87.796 299 L 169.097 299 C 180.15 299 190.367 297.036 199.784 293.18 C 209.165 289.287 216.655 283.577 222.182 276.011 C 227.781 268.444 230.617 259.35 230.617 248.801 C 230.617 234.65 226.436 223.337 218.109 214.897 C 209.747 206.386 197.493 202.093 181.313 202.093 L 131.428 202.093 C 125.028 202.093 120.519 201.33 117.901 199.766 C 115.284 198.129 113.975 196.055 113.975 193.509 C 113.975 188.089 119.793 185.36 131.428 185.36 L 152.517 185.36 C 170.042 185.36 184.659 181.432 196.294 173.574 C 208.002 165.644 213.892 153.894 213.892 138.361 C 213.892 132.25 212.364 126.502 209.383 121.046 C 206.365 115.626 202.147 110.861 196.729 106.787 C 207.965 103.877 216.4 99.366 222.036 93.255 C 227.745 87.144 230.617 78.486 230.617 67.209 L 185.095 67.209 Z M 613.441 265.367 C 611.296 265.367 609.296 265.767 607.479 266.531 C 605.733 267.222 604.17 268.241 602.824 269.587 C 601.443 270.86 600.389 272.461 599.625 274.389 C 598.934 276.353 598.606 278.536 598.606 280.937 C 598.606 282.974 599.043 284.865 599.916 286.611 C 600.861 288.285 602.28 289.594 604.134 290.54 C 605.952 291.486 608.133 291.995 610.678 291.995 C 612.787 291.995 614.751 291.631 616.496 290.977 C 618.314 290.213 619.913 289.158 621.295 287.775 C 622.64 286.429 623.659 284.829 624.35 282.974 C 625.113 281.046 625.513 278.863 625.513 276.426 C 625.513 274.316 625.004 272.424 624.059 270.751 C 623.186 269.114 621.804 267.804 619.986 266.822 C 618.241 265.876 616.059 265.367 613.441 265.367 Z M 641.961 265.367 C 639.997 265.367 638.106 265.767 636.288 266.531 C 634.543 267.222 632.979 268.277 631.634 269.732 C 630.252 271.115 629.162 272.788 628.289 274.825 C 627.489 276.79 627.126 278.972 627.126 281.373 C 627.126 283.701 627.562 285.666 628.435 287.193 C 629.38 288.757 630.652 289.958 632.216 290.831 C 633.852 291.595 635.707 291.995 637.743 291.995 C 640.943 291.995 643.706 291.231 646.033 289.667 C 648.36 288.03 649.959 285.702 650.832 282.683 L 650.832 282.246 L 644.287 282.246 L 644.142 282.683 C 643.56 284.065 642.761 285.12 641.815 285.884 C 640.943 286.684 639.815 287.048 638.47 287.048 C 637.67 287.048 636.943 286.866 636.288 286.466 C 635.597 286.102 635.052 285.447 634.688 284.574 C 634.289 283.628 634.106 282.392 634.106 280.937 C 634.106 278.608 634.434 276.68 635.125 275.116 C 635.779 273.479 636.652 272.279 637.743 271.479 C 638.907 270.715 640.106 270.314 641.379 270.314 C 644.069 270.315 645.488 271.624 645.597 274.243 L 645.597 274.68 L 652.287 274.68 L 652.287 274.243 C 652.36 272.606 652.069 271.115 651.414 269.732 C 650.723 268.387 649.596 267.332 648.069 266.531 C 646.506 265.767 644.47 265.367 641.961 265.367 Z M 530.227 265.949 L 534.734 291.413 L 543.315 291.413 L 556.842 265.949 L 549.715 265.949 L 539.971 286.32 L 537.498 265.949 L 530.227 265.949 Z M 557.766 265.949 L 553.257 291.413 L 572.891 291.413 L 573.764 286.175 L 560.819 286.175 L 561.692 281.228 L 573.618 281.228 L 574.491 275.989 L 562.71 275.989 L 563.583 271.042 L 576.091 271.042 L 576.963 265.949 L 557.766 265.949 Z M 579.789 265.949 L 575.28 291.413 L 594.914 291.413 L 595.933 285.738 L 582.988 285.738 L 586.479 265.949 L 579.789 265.949 Z M 657.186 265.949 L 652.677 291.413 L 659.367 291.413 L 663.876 265.949 L 657.186 265.949 Z M 665.44 265.949 L 664.422 271.042 L 672.712 271.042 L 669.222 291.413 L 675.767 291.413 L 679.402 271.042 L 687.692 271.042 L 688.365 267.113 L 694.156 281.664 L 692.411 291.413 L 699.102 291.413 L 700.701 281.81 L 712.481 265.949 L 705.21 265.949 L 698.52 276.135 L 695.029 265.949 L 665.44 265.949 Z M 613.15 270.314 C 614.896 270.314 616.205 270.897 617.077 272.061 C 618.023 273.225 618.532 274.752 618.532 276.571 C 618.532 277.844 618.387 279.118 618.096 280.354 C 617.805 281.518 617.296 282.646 616.642 283.701 C 616.06 284.683 615.26 285.52 614.314 286.175 C 613.333 286.757 612.205 287.048 610.969 287.048 C 609.224 287.048 607.842 286.466 606.896 285.302 C 606.024 284.138 605.588 282.61 605.588 280.646 C 605.588 279.481 605.734 278.317 606.024 277.153 C 606.315 275.917 606.751 274.789 607.333 273.807 C 607.987 272.752 608.824 271.915 609.806 271.333 C 610.751 270.678 611.878 270.314 613.15 270.314 Z M 160.807 240.798 C 165.061 240.798 168.551 241.962 171.278 244.29 C 174.078 246.691 175.496 250.038 175.496 254.33 C 175.496 258.586 174.042 261.933 171.133 264.37 C 168.297 266.88 164.879 268.153 160.807 268.153 L 117.611 268.153 C 113.539 268.153 110.085 266.844 107.285 264.225 C 104.558 261.678 103.213 258.295 103.213 254.039 C 103.213 249.856 104.522 246.618 107.14 244.29 C 109.83 241.962 113.321 240.798 117.611 240.798 L 160.807 240.798 Z M 562.761 40 L 562.761 108.097 C 552.18 96.856 538.509 91.218 521.747 91.218 C 501.967 91.218 486.733 97.693 476.079 110.57 C 465.389 123.375 460.081 142.364 460.081 167.464 C 460.081 192.709 465.389 211.807 476.079 224.793 C 486.733 237.707 501.967 244.146 521.747 244.146 C 541.999 244.145 557.525 236.106 568.287 219.991 L 572.941 240.799 L 617.737 240.799 L 617.737 40 L 562.761 40 Z M 376.218 94.564 L 376.218 240.799 L 431.193 240.799 L 431.193 94.564 L 376.218 94.564 Z M 651.806 185.651 L 651.806 240.799 L 710.563 240.799 L 710.563 185.651 L 651.806 185.651 Z M 339.878 90.927 C 330.861 90.927 322.715 93.109 315.443 97.475 C 308.244 101.84 303.009 108.242 299.736 116.682 L 296.101 94.564 L 251.014 94.564 L 251.014 240.798 L 306.136 240.798 L 306.136 175.757 C 306.136 164.116 308.644 155.349 313.698 149.42 C 318.825 143.527 327.115 140.544 338.568 140.544 L 356.167 140.544 L 356.167 94.273 C 356.167 94.092 354.494 93.51 351.222 92.527 C 347.913 91.472 344.132 90.927 339.878 90.927 Z M 538.909 131.96 C 547.054 131.96 553.089 134.87 557.089 140.69 C 561.161 146.511 563.197 154.041 563.197 163.244 L 563.197 172.411 C 563.197 181.65 561.161 189.107 557.089 194.818 C 553.089 200.566 547.054 203.403 538.909 203.403 C 522.984 203.403 515.057 194.019 515.057 175.176 L 515.057 160.479 C 515.057 141.491 522.984 131.96 538.909 131.96 Z M 138.99 120.027 C 145.571 120.027 150.771 121.592 154.553 124.684 C 158.334 127.703 160.225 132.25 160.225 138.361 C 160.225 144.473 158.334 149.056 154.553 152.039 C 150.771 155.058 145.571 156.55 138.99 156.55 C 132.3 156.55 127.137 155.058 123.574 152.039 C 119.975 149.056 118.192 144.473 118.192 138.361 C 118.192 132.468 120.12 127.957 124.011 124.829 C 127.865 121.628 132.882 120.027 138.99 120.027 Z M 376.218 40 L 376.218 77.396 L 431.193 77.396 L 431.193 40 L 376.218 40 Z" fill="currentColor" fill-rule="nonzero"></path>
</svg>