<svg xmlns="http://www.w3.org/2000/svg" xmlns:xlink="http://www.w3.org/1999/xlink" width="113" zoomAndPan="magnify" viewBox="0 0 84.75 30.000001" height="40" preserveAspectRatio="xMidYMid meet" version="1.0"><defs><g></g></defs><g fill="#171c1a" fill-opacity="1"><g transform="translate(2.220043, 22.071261)"><g><path d="M 19.453125 -18.640625 C 19.453125 -17.429688 19.144531 -16.5 18.53125 -15.84375 C 17.925781 -15.1875 17.019531 -14.703125 15.8125 -14.390625 C 16.394531 -13.953125 16.847656 -13.441406 17.171875 -12.859375 C 17.492188 -12.273438 17.65625 -11.65625 17.65625 -11 C 17.65625 -9.332031 17.023438 -8.070312 15.765625 -7.21875 C 14.515625 -6.375 12.945312 -5.953125 11.0625 -5.953125 L 8.796875 -5.953125 C 7.546875 -5.953125 6.921875 -5.660156 6.921875 -5.078125 C 6.921875 -4.804688 7.0625 -4.582031 7.34375 -4.40625 C 7.625 -4.238281 8.109375 -4.15625 8.796875 -4.15625 L 14.15625 -4.15625 C 15.894531 -4.15625 17.210938 -3.695312 18.109375 -2.78125 C 19.003906 -1.875 19.453125 -0.660156 19.453125 0.859375 C 19.453125 1.992188 19.148438 2.96875 18.546875 3.78125 C 17.953125 4.59375 17.148438 5.207031 16.140625 5.625 C 15.128906 6.039062 14.03125 6.25 12.84375 6.25 L 4.109375 6.25 C 3.390625 6.25 2.726562 6.078125 2.125 5.734375 C 1.519531 5.398438 1.039062 4.941406 0.6875 4.359375 C 0.332031 3.773438 0.15625 3.125 0.15625 2.40625 C 0.15625 1.632812 0.390625 0.9375 0.859375 0.3125 C 1.335938 -0.3125 1.929688 -0.78125 2.640625 -1.09375 C 2.171875 -1.4375 1.796875 -1.84375 1.515625 -2.3125 C 1.234375 -2.789062 1.09375 -3.304688 1.09375 -3.859375 C 1.09375 -4.640625 1.378906 -5.335938 1.953125 -5.953125 C 2.535156 -6.578125 3.253906 -7 4.109375 -7.21875 C 3.328125 -7.71875 2.707031 -8.289062 2.25 -8.9375 C 1.800781 -9.582031 1.578125 -10.257812 1.578125 -10.96875 C 1.578125 -12.789062 2.3125 -14.09375 3.78125 -14.875 C 5.257812 -15.664062 7.21875 -16.0625 9.65625 -16.0625 C 10.726562 -16.0625 11.59375 -16 12.25 -15.875 C 13.21875 -16.488281 13.84375 -17.046875 14.125 -17.546875 C 14.414062 -18.054688 14.5625 -18.421875 14.5625 -18.640625 Z M 9.609375 -12.96875 C 8.953125 -12.96875 8.414062 -12.796875 8 -12.453125 C 7.582031 -12.117188 7.375 -11.632812 7.375 -11 C 7.375 -10.34375 7.566406 -9.851562 7.953125 -9.53125 C 8.335938 -9.207031 8.890625 -9.046875 9.609375 -9.046875 C 10.316406 -9.046875 10.875 -9.207031 11.28125 -9.53125 C 11.6875 -9.851562 11.890625 -10.34375 11.890625 -11 C 11.890625 -11.65625 11.6875 -12.144531 11.28125 -12.46875 C 10.875 -12.800781 10.316406 -12.96875 9.609375 -12.96875 Z M 7.3125 0 C 6.851562 0 6.476562 0.125 6.1875 0.375 C 5.90625 0.625 5.765625 0.972656 5.765625 1.421875 C 5.765625 1.878906 5.910156 2.242188 6.203125 2.515625 C 6.503906 2.796875 6.875 2.9375 7.3125 2.9375 L 11.953125 2.9375 C 12.390625 2.9375 12.757812 2.800781 13.0625 2.53125 C 13.375 2.269531 13.53125 1.910156 13.53125 1.453125 C 13.53125 0.992188 13.378906 0.632812 13.078125 0.375 C 12.785156 0.125 12.410156 0 11.953125 0 Z M 7.3125 0 "></path></g></g></g><g fill="#171c1a" fill-opacity="1"><g transform="translate(22.083241, 22.071261)"><g><path d="M 11.328125 -16.09375 C 11.785156 -16.09375 12.191406 -16.035156 12.546875 -15.921875 C 12.898438 -15.816406 13.078125 -15.753906 13.078125 -15.734375 L 13.078125 -10.765625 L 11.1875 -10.765625 C 9.957031 -10.765625 9.066406 -10.445312 8.515625 -9.8125 C 7.972656 -9.175781 7.703125 -8.234375 7.703125 -6.984375 L 7.703125 0 L 1.78125 0 L 1.78125 -15.703125 L 6.625 -15.703125 L 7.015625 -13.328125 C 7.367188 -14.234375 7.929688 -14.921875 8.703125 -15.390625 C 9.484375 -15.859375 10.359375 -16.09375 11.328125 -16.09375 Z M 11.328125 -16.09375 "></path></g></g></g><g fill="#171c1a" fill-opacity="1"><g transform="translate(35.315459, 22.071261)"><g><path d="M 2 -17.546875 L 2 -21.5625 L 7.90625 -21.5625 L 7.90625 -17.546875 Z M 2 0 L 2 -15.703125 L 7.90625 -15.703125 L 7.90625 0 Z M 2 0 "></path></g></g></g><g fill="#171c1a" fill-opacity="1"><g transform="translate(45.24706, 22.071261)"><g><path d="M 13.203125 0 L 12.703125 -2.234375 C 11.546875 -0.503906 9.878906 0.359375 7.703125 0.359375 C 5.578125 0.359375 3.941406 -0.332031 2.796875 -1.71875 C 1.648438 -3.113281 1.078125 -5.164062 1.078125 -7.875 C 1.078125 -10.570312 1.648438 -12.609375 2.796875 -13.984375 C 3.941406 -15.367188 5.578125 -16.0625 7.703125 -16.0625 C 9.503906 -16.0625 10.972656 -15.457031 12.109375 -14.25 L 12.109375 -21.5625 L 18.015625 -21.5625 L 18.015625 0 Z M 9.546875 -11.6875 C 7.835938 -11.6875 6.984375 -10.664062 6.984375 -8.625 L 6.984375 -7.046875 C 6.984375 -5.023438 7.835938 -4.015625 9.546875 -4.015625 C 10.421875 -4.015625 11.070312 -4.320312 11.5 -4.9375 C 11.9375 -5.550781 12.15625 -6.351562 12.15625 -7.34375 L 12.15625 -8.328125 C 12.15625 -9.316406 11.9375 -10.125 11.5 -10.75 C 11.070312 -11.375 10.421875 -11.6875 9.546875 -11.6875 Z M 9.546875 -11.6875 "></path></g></g></g><g fill="#171c1a" fill-opacity="1"><g transform="translate(65.110258, 22.071261)"><g><path d="M 1.8125 0 L 1.8125 -5.921875 L 8.125 -5.921875 L 8.125 0 Z M 1.8125 0 "></path></g></g></g><g fill="#171c1a" fill-opacity="1"><g transform="translate(53.439283, 27.506514)"><g><path d="M 1.828125 0 L 0.90625 0 L 0.421875 -2.734375 L 1.203125 -2.734375 L 1.46875 -0.546875 L 2.515625 -2.734375 L 3.28125 -2.734375 Z M 1.828125 0 "></path></g></g></g><g fill="#171c1a" fill-opacity="1"><g transform="translate(56.257194, 27.506514)"><g><path d="M 1.1875 -2.1875 L 1.09375 -1.65625 L 2.359375 -1.65625 L 2.265625 -1.09375 L 0.984375 -1.09375 L 0.890625 -0.5625 L 2.28125 -0.5625 L 2.1875 0 L 0.078125 0 L 0.5625 -2.734375 L 2.625 -2.734375 L 2.53125 -2.1875 Z M 1.1875 -2.1875 "></path></g></g></g><g fill="#171c1a" fill-opacity="1"><g transform="translate(58.623289, 27.506514)"><g><path d="M 2.296875 -0.609375 L 2.1875 0 L 0.078125 0 L 0.5625 -2.734375 L 1.28125 -2.734375 L 0.90625 -0.609375 Z M 2.296875 -0.609375 "></path></g></g></g><g fill="#171c1a" fill-opacity="1"><g transform="translate(60.941825, 27.506514)"><g><path d="M 1.859375 -2.796875 C 2.140625 -2.796875 2.375 -2.742188 2.5625 -2.640625 C 2.757812 -2.535156 2.90625 -2.394531 3 -2.21875 C 3.101562 -2.039062 3.15625 -1.835938 3.15625 -1.609375 C 3.15625 -1.347656 3.113281 -1.113281 3.03125 -0.90625 C 2.957031 -0.707031 2.847656 -0.535156 2.703125 -0.390625 C 2.554688 -0.242188 2.382812 -0.128906 2.1875 -0.046875 C 2 0.0234375 1.789062 0.0625 1.5625 0.0625 C 1.289062 0.0625 1.054688 0.0078125 0.859375 -0.09375 C 0.660156 -0.195312 0.507812 -0.335938 0.40625 -0.515625 C 0.3125 -0.703125 0.265625 -0.90625 0.265625 -1.125 C 0.265625 -1.382812 0.300781 -1.617188 0.375 -1.828125 C 0.457031 -2.035156 0.570312 -2.207031 0.71875 -2.34375 C 0.863281 -2.488281 1.03125 -2.597656 1.21875 -2.671875 C 1.414062 -2.753906 1.628906 -2.796875 1.859375 -2.796875 Z M 1.59375 -0.46875 C 1.726562 -0.46875 1.847656 -0.5 1.953125 -0.5625 C 2.054688 -0.632812 2.140625 -0.722656 2.203125 -0.828125 C 2.273438 -0.941406 2.328125 -1.0625 2.359375 -1.1875 C 2.390625 -1.320312 2.40625 -1.457031 2.40625 -1.59375 C 2.40625 -1.789062 2.351562 -1.953125 2.25 -2.078125 C 2.15625 -2.203125 2.015625 -2.265625 1.828125 -2.265625 C 1.691406 -2.265625 1.570312 -2.226562 1.46875 -2.15625 C 1.363281 -2.09375 1.273438 -2.003906 1.203125 -1.890625 C 1.140625 -1.785156 1.09375 -1.664062 1.0625 -1.53125 C 1.03125 -1.40625 1.015625 -1.28125 1.015625 -1.15625 C 1.015625 -0.945312 1.0625 -0.78125 1.15625 -0.65625 C 1.257812 -0.53125 1.40625 -0.46875 1.59375 -0.46875 Z M 1.59375 -0.46875 "></path></g></g></g><g fill="#171c1a" fill-opacity="1"><g transform="translate(64.021315, 27.506514)"><g><path d="M 1.84375 -2.796875 C 2.113281 -2.796875 2.332031 -2.753906 2.5 -2.671875 C 2.664062 -2.585938 2.785156 -2.472656 2.859375 -2.328125 C 2.929688 -2.179688 2.960938 -2.019531 2.953125 -1.84375 L 2.953125 -1.796875 L 2.234375 -1.796875 L 2.234375 -1.84375 C 2.222656 -2.125 2.070312 -2.265625 1.78125 -2.265625 C 1.644531 -2.265625 1.515625 -2.222656 1.390625 -2.140625 C 1.273438 -2.054688 1.179688 -1.925781 1.109375 -1.75 C 1.035156 -1.582031 1 -1.375 1 -1.125 C 1 -0.96875 1.019531 -0.835938 1.0625 -0.734375 C 1.101562 -0.640625 1.160156 -0.570312 1.234375 -0.53125 C 1.304688 -0.488281 1.382812 -0.46875 1.46875 -0.46875 C 1.613281 -0.46875 1.734375 -0.507812 1.828125 -0.59375 C 1.929688 -0.675781 2.015625 -0.789062 2.078125 -0.9375 L 2.09375 -0.984375 L 2.796875 -0.984375 L 2.796875 -0.9375 C 2.703125 -0.613281 2.53125 -0.363281 2.28125 -0.1875 C 2.03125 -0.0195312 1.734375 0.0625 1.390625 0.0625 C 1.171875 0.0625 0.972656 0.0195312 0.796875 -0.0625 C 0.628906 -0.15625 0.492188 -0.285156 0.390625 -0.453125 C 0.296875 -0.617188 0.25 -0.828125 0.25 -1.078125 C 0.25 -1.335938 0.289062 -1.570312 0.375 -1.78125 C 0.46875 -2 0.585938 -2.179688 0.734375 -2.328125 C 0.878906 -2.484375 1.046875 -2.597656 1.234375 -2.671875 C 1.429688 -2.753906 1.632812 -2.796875 1.84375 -2.796875 Z M 1.84375 -2.796875 "></path></g></g></g><g fill="#171c1a" fill-opacity="1"><g transform="translate(66.938309, 27.506514)"><g><path d="M 0.796875 0 L 0.078125 0 L 0.5625 -2.734375 L 1.28125 -2.734375 Z M 0.796875 0 "></path></g></g></g><g fill="#171c1a" fill-opacity="1"><g transform="translate(68.028218, 27.506514)"><g><path d="M 2.75 -2.1875 L 1.859375 -2.1875 L 1.46875 0 L 0.765625 0 L 1.140625 -2.1875 L 0.25 -2.1875 L 0.359375 -2.734375 L 2.84375 -2.734375 Z M 2.75 -2.1875 "></path></g></g></g><g fill="#171c1a" fill-opacity="1"><g transform="translate(70.410166, 27.506514)"><g><path d="M 1.765625 -1.03125 L 1.59375 0 L 0.875 0 L 1.0625 -1.046875 L 0.390625 -2.734375 L 1.15625 -2.734375 L 1.53125 -1.640625 L 2.25 -2.734375 L 3.03125 -2.734375 Z M 1.765625 -1.03125 "></path></g></g></g></svg>