<svg width="100" height="100" viewBox="0 0 100 100" fill="none" xmlns="http://www.w3.org/2000/svg">
<path d="M74.2942 66.8474C73.949 66.8474 73.618 66.7103 73.374 66.4662C73.1299 66.2222 72.9928 65.8912 72.9928 65.5461V37.4663C67.1605 43.7376 51.8743 60.043 46.9199 63.9783C42.7338 67.3021 35.4591 67.6626 29.6738 64.8406C26.9771 63.6154 24.6998 61.6248 23.1249 59.1161C21.55 56.6075 20.747 53.6913 20.8156 50.7301C20.8156 44.4588 22.5402 39.7553 25.9424 36.6197C28.621 34.2091 32.0908 32.8647 35.6943 32.8412C39.7079 32.7471 50.6043 32.8412 50.714 32.8412C51.062 32.8494 51.393 32.9934 51.6362 33.2425C51.8794 33.4915 52.0155 33.8258 52.0154 34.1739C52.0112 34.5204 51.8707 34.8514 51.6241 35.095C51.3776 35.3386 51.0449 35.4752 50.6983 35.4752C50.5886 35.4752 39.7236 35.3968 35.7413 35.4752C32.8565 35.4752 23.4339 36.7921 23.4339 50.7771C23.3843 53.2316 24.056 55.6466 25.3659 57.7228C26.6758 59.7991 28.5661 61.4453 30.8027 62.4575C33.2834 63.6247 36.0134 64.1632 38.7515 64.0253C41.1217 63.9991 43.4264 63.2437 45.3521 61.8617C51.2471 57.1582 73.181 33.39 73.4005 33.1548C73.581 32.9641 73.8144 32.8317 74.0706 32.7747C74.3269 32.7176 74.5944 32.7384 74.8387 32.8345C75.0831 32.9305 75.2931 33.0974 75.4419 33.3137C75.5907 33.5301 75.6715 33.7859 75.6739 34.0485V65.405C75.6949 65.5942 75.6742 65.7856 75.6132 65.9659C75.5523 66.1462 75.4524 66.3109 75.3209 66.4484C75.1893 66.586 75.0292 66.693 74.8518 66.7619C74.6744 66.8308 74.4841 66.86 74.2942 66.8474Z" fill="#D5A457" stroke="#D5A457" stroke-width="1.56783"></path>
<path d="M49.8051 93.6103C40.7431 93.6024 31.9239 90.6802 24.6501 85.2753C17.3764 79.8705 12.0338 72.2695 9.41151 63.5952C6.78924 54.9209 7.02633 45.6332 10.0878 37.1039C13.1492 28.5747 18.8727 21.2562 26.4127 16.2295C33.9528 11.2028 42.9096 8.7344 51.9602 9.18893C61.0109 9.64345 69.6753 12.9968 76.6738 18.7536C83.6723 24.5105 88.6338 32.3656 90.8253 41.1586C93.0168 49.9516 92.3222 59.2164 88.844 67.5843C88.7781 67.7429 88.6817 67.8869 88.5601 68.0081C88.4386 68.1294 88.2943 68.2255 88.1357 68.291C87.977 68.3565 87.807 68.3902 87.6353 68.39C87.4636 68.3898 87.2936 68.3558 87.1351 68.2899C86.9766 68.224 86.8325 68.1275 86.7113 68.006C86.59 67.8844 86.4939 67.7402 86.4284 67.5815C86.3629 67.4228 86.3293 67.2528 86.3295 67.0811C86.3297 66.9094 86.3637 66.7394 86.4296 66.5809C90.2321 57.5019 90.529 47.3345 87.2625 38.0492C83.9961 28.7638 77.399 21.0216 68.7496 16.3229C60.1003 11.6243 50.0147 10.3038 40.4473 12.6173C30.8799 14.9309 22.5119 20.7137 16.9651 28.8452C11.4183 36.9766 9.08757 46.8777 10.4246 56.6296C11.7617 66.3816 16.6713 75.2899 24.202 81.6284C31.7327 87.9669 41.3483 91.2841 51.1854 90.9371C61.0224 90.5902 70.3804 86.6039 77.4459 79.7507C77.5695 79.6313 77.7153 79.5373 77.8751 79.4743C78.0349 79.4112 78.2056 79.3803 78.3774 79.3832C78.5492 79.3861 78.7188 79.4228 78.8764 79.4913C79.034 79.5597 79.1765 79.6585 79.296 79.782C79.4154 79.9056 79.5093 80.0514 79.5723 80.2113C79.6354 80.3711 79.6663 80.5417 79.6634 80.7135C79.6605 80.8853 79.6238 81.0549 79.5554 81.2125C79.4869 81.3701 79.3881 81.5126 79.2646 81.632C71.6903 89.0128 61.6154 93.2723 51.0437 93.5632H49.8522" fill="#D5A457"></path>
<path d="M49.8051 93.6103C40.7431 93.6024 31.9239 90.6802 24.6501 85.2753C17.3764 79.8705 12.0338 72.2695 9.41151 63.5952C6.78924 54.9209 7.02633 45.6332 10.0878 37.1039C13.1492 28.5747 18.8727 21.2562 26.4127 16.2295C33.9528 11.2028 42.9096 8.7344 51.9602 9.18893C61.0109 9.64345 69.6753 12.9968 76.6738 18.7536C83.6723 24.5105 88.6338 32.3656 90.8253 41.1586C93.0168 49.9516 92.3222 59.2164 88.844 67.5843C88.7781 67.7429 88.6817 67.8869 88.5601 68.0081C88.4386 68.1294 88.2943 68.2255 88.1357 68.291C87.977 68.3565 87.807 68.3902 87.6353 68.39C87.4636 68.3898 87.2936 68.3558 87.1351 68.2899C86.9766 68.224 86.8325 68.1275 86.7113 68.006C86.59 67.8844 86.4939 67.7402 86.4284 67.5815C86.3629 67.4228 86.3293 67.2528 86.3295 67.0811C86.3297 66.9094 86.3637 66.7394 86.4296 66.5809C90.2321 57.5019 90.5289 47.3345 87.2625 38.0492C83.9961 28.7638 77.399 21.0216 68.7496 16.3229C60.1003 11.6243 50.0147 10.3038 40.4473 12.6173C30.8799 14.9309 22.5119 20.7137 16.9651 28.8452C11.4183 36.9766 9.08757 46.8777 10.4246 56.6296C11.7617 66.3816 16.6713 75.2899 24.202 81.6284C31.7327 87.9669 41.3483 91.2841 51.1854 90.9371C61.0224 90.5902 70.3804 86.6039 77.4459 79.7507C77.5695 79.6313 77.7153 79.5373 77.8751 79.4743C78.0349 79.4112 78.2056 79.3803 78.3774 79.3832C78.5492 79.3861 78.7187 79.4228 78.8763 79.4913C79.0339 79.5597 79.1765 79.6585 79.296 79.782C79.4154 79.9056 79.5093 80.0514 79.5723 80.2112C79.6354 80.3711 79.6663 80.5417 79.6634 80.7135C79.6605 80.8853 79.6238 81.0549 79.5554 81.2125C79.4869 81.3701 79.3881 81.5126 79.2646 81.632C71.6903 89.0128 61.6154 93.2723 51.0437 93.5632H49.8522" stroke="#D5A457" stroke-width="1.56783"></path>
</svg>